<svg xmlns="http://www.w3.org/2000/svg" version="1.1" xmlns:xlink="http://www.w3.org/1999/xlink" width="512" height="512" x="0" y="0" viewBox="0 0 32 32" style="enable-background:new 0 0 512 512" xml:space="preserve" class=""><g><path fill="#ffb80f" d="M16 9.5a1 1 0 0 0-.71.29l-11 11a1 1 0 0 0 1.42 1.42l9.58-9.59a1 1 0 0 1 1.42 0l9.58 9.59a1 1 0 0 0 1.42-1.42l-11-11A1 1 0 0 0 16 9.5z" opacity="1" data-original="#ed1c24"></path><path fill="#231f20" d="M16 9.5a1 1 0 0 1 .71.29l11 11a1 1 0 0 1 0 1.42 1 1 0 0 1-1.42 0l-9.58-9.59a1 1 0 0 0-1.42 0l-9.58 9.59a1 1 0 0 1-1.42 0 1 1 0 0 1 0-1.42l11-11A1 1 0 0 1 16 9.5m0-2a3 3 0 0 0-2.12.88l-11 11a3 3 0 1 0 4.24 4.24L16 14.74l8.88 8.88a3 3 0 1 0 4.24-4.24l-11-11A3 3 0 0 0 16 7.5z" opacity="1" data-original="#231f20"></path></g></svg>