<svg height="512pt" viewBox="-58 0 512 512" width="512pt" xmlns="http://www.w3.org/2000/svg"><path d="m73.121094 216.207031-53.101563 6.074219-12.617187-110.277344c-.539063-4.703125 2.839844-8.949218 7.539062-9.488281l36.078125-4.128906c4.699219-.535157 8.945313 2.839843 9.484375 7.539062zm0 0" fill="#ffcd70"/><path d="m129.832031 321.53125-53.382812 2.6875-12.738281-252.875c-.238282-4.726562 3.398437-8.753906 8.125-8.992188l36.265624-1.824218c4.726563-.238282 8.753907 3.398437 8.988282 8.125zm0 0" fill="#ffe170"/><path d="m321.144531 227.449219 53.101563 6.074219 13.902344-121.519532c.539062-4.703125-2.835938-8.949218-7.539063-9.488281l-36.074219-4.125c-4.703125-.539063-8.949218 2.835937-9.488281 7.539063zm0 0" fill="#ffe170"/><path d="m265.71875 331.871094 53.382812 2.6875 12.738282-252.875c.238281-4.726563-3.398438-8.753906-8.128906-8.992188l-36.261719-1.824218c-4.726563-.238282-8.753907 3.398437-8.992188 8.125zm0 0" fill="#ffb65c"/><path d="m170.851562 320.957031h-53.449218v-286.207031c0-5.023438 4.074218-9.101562 9.101562-9.101562h35.246094c5.027344 0 9.101562 4.078124 9.101562 9.101562zm0 0" fill="#ffb65c"/><path d="m224.300781 312.84375h-53.449219v-296.238281c0-5.113281 4.144532-9.257813 9.257813-9.257813h34.933594c5.113281 0 9.257812 4.144532 9.257812 9.257813zm0 0" fill="#ffcd70"/><path d="m277.75 305.496094h-53.449219v-253.199219c0-4.730469 3.835938-8.570313 8.566407-8.570313h36.3125c4.730468 0 8.570312 3.835938 8.570312 8.570313zm0 0" fill="#ffe170"/><path d="m197.351562 410.78125h-50.636718v-296.484375c0-4.976563 4.03125-9.007813 9.007812-9.007813h32.617188c4.976562 0 9.011718 4.03125 9.011718 9.007813zm0 0" fill="#ffe170"/><path d="m247.988281 439.371094h-50.636719v-296.484375c0-4.976563 4.03125-9.007813 9.007813-9.007813h32.617187c4.976563 0 9.011719 4.03125 9.011719 9.007813zm0 0" fill="#ffb65c"/><path d="m153.367188 457.359375-50.613282 1.613281-9.421875-296.335937c-.160156-4.972657 3.746094-9.132813 8.71875-9.292969l32.601563-1.035156c4.972656-.160156 9.132812 3.746094 9.289062 8.71875zm0 0" fill="#ffcd70"/><path d="m298.625 465.589844h-50.636719v-296.484375c0-4.976563 4.03125-9.011719 9.007813-9.011719h32.617187c4.976563 0 9.011719 4.035156 9.011719 9.011719zm0 0" fill="#ffcd70"/><path d="m304.605469 504.652344h-213.65625c-14.316407 0-26.53125-10.355469-28.871094-24.476563l-47.761719-287.808593h34.089844c16.050781 0 30.679688 9.195312 37.640625 23.65625 20.148437 41.867187 62.273437 70 109.363281 71.109374 49.320313 1.164063 94.40625-27.539062 115.414063-71.421874 6.875-14.363282 21.570312-23.34375 37.496093-23.34375h32.914063l-47.761719 287.808593c-2.34375 14.121094-14.554687 24.476563-28.867187 24.476563zm0 0" fill="#e55045"/><path d="m123.347656 287.136719c13.421875.316406 26.519532-1.597657 38.914063-5.40625-33.082031-10.179688-60.953125-33.996094-76.214844-65.703125-6.960937-14.464844-21.589844-23.660156-37.640625-23.660156h-34.089844l5.785156 34.867187c21.839844 35.609375 60.496094 58.890625 103.246094 59.902344zm0 0" fill="#c43730"/><path d="m348.320312 192.367188c-15.925781 0-30.617187 8.980468-37.496093 23.34375-2.324219 4.855468-4.960938 9.511718-7.847657 13.976562l-41.566406 250.488281c-2.34375 14.121094-14.554687 24.476563-28.871094 24.476563h72.066407c14.3125 0 26.527343-10.355469 28.871093-24.476563l47.757813-287.808593zm0 0" fill="#c43730"/><path d="m243.316406 386.480469c0 25.703125-20.835937 46.539062-46.539062 46.539062s-46.539063-20.835937-46.539063-46.539062 20.835938-46.539063 46.539063-46.539063 46.539062 20.835938 46.539062 46.539063zm0 0" fill="#fff"/><path d="m381.441406 95.210938-36.074218-4.125c-2.324219-.265626-4.582032 0-6.675782.675781l.492188-9.710938c.433594-8.757812-6.335938-16.246093-15.105469-16.703125l-36.261719-1.820312c-.925781-.046875-1.828125.003906-2.71875.113281v-11.339844c0-8.78125-7.140625-15.921875-15.917968-15.921875h-36.3125c-.410157 0-.8125.03125-1.214844.0625v-19.835937c0-9.15625-7.449219-16.605469-16.605469-16.605469h-34.941406c-9.15625 0-16.605469 7.449219-16.605469 16.605469v1.792969c-.578125-.0625-1.160156-.097657-1.753906-.097657h-35.242188c-9.070312 0-16.449218 7.378907-16.449218 16.453125v18.503906c-.765626-.074218-1.539063-.109374-2.316407-.066406l-36.269531 1.820313c-8.757812.4375-15.53125 7.929687-15.09375 16.703125l1.019531 20.234375c-2.242187-.8125-4.691406-1.148438-7.214843-.863281l-36.074219 4.128906c-4.226563.480468-8.007813 2.585937-10.65625 5.917968-2.640625 3.328126-3.828125 7.488282-3.34375 11.710938l8.566406 74.828125c-1.363281 1.640625-1.953125 3.792969-1.601563 5.898437l47.757813 287.808594c2.945313 17.742188 18.132813 30.621094 36.121094 30.621094h213.65625c17.984375 0 33.175781-12.878906 36.117187-30.621094l15.550782-93.695312c.664062-4.003906-2.042969-7.789063-6.046876-8.453125-4-.664063-7.785156 2.042969-8.449218 6.046875l-15.550782 93.695312c-1.761718 10.621094-10.855468 18.332032-21.621093 18.332032h-213.65625c-10.769531 0-19.863281-7.710938-21.625-18.332032l-46.339844-279.257812h25.417969c13.144531 0 25.324218 7.652344 31.023437 19.496094 2.859375 5.941406 6.160157 11.632812 9.839844 17.050781.015625.03125.035156.0625.054687.09375.128907.203125.265626.402343.410157.589843 9.796875 14.238282 22.289062 26.515626 36.867187 36.066407 5.628906 3.683593 11.496094 6.898437 17.546875 9.664062.265625.140625.542969.265625.828125.375 15.828125 7.101563 32.890625 11.019531 50.265625 11.429688.582031.011719 2.320313.015625 2.421875.011719 50.726563.21875 97.574219-29.203126 119.789063-75.605469 5.578125-11.644531 17.695312-19.167969 30.871093-19.167969h24.246094l-24.46875 147.4375c-.664062 4.003906 2.042969 7.789062 6.046875 8.453125 4.003907.664063 7.789063-2.042969 8.453125-6.046875l25.882813-155.992188c.351562-2.101562-.234375-4.246093-1.589844-5.886718l8.558594-74.839844c1-8.722656-5.285157-16.632812-14.007813-17.632812zm-148.574218-44.136719h36.3125c.675781 0 1.222656.550781 1.222656 1.226562v40.523438l-3.019532 59.921875h-10.382812c-.5625 0-1.117188.027344-1.667969.082031v-9.9375c0-9.023437-7.335937-16.363281-16.351562-16.363281h-7.328125v-74.226563c0-.675781.546875-1.226562 1.214844-1.226562zm-28.167969 91.816406c0-.921875.746093-1.667969 1.667969-1.667969h32.613281c.914062 0 1.65625.746094 1.65625 1.667969v128.882813c-11.371094 4.46875-23.484375 7.167968-35.9375 7.859374zm-26.503907-126.285156c0-1.050781.859376-1.910157 1.910157-1.910157h34.941406c1.050781 0 1.910156.859376 1.910156 1.910157v109.921875h-10.589843c-.5625 0-1.121094.027344-1.667969.082031v-12.308594c0-9.023437-7.339844-16.363281-16.363281-16.363281h-10.136719v-81.332031zm-51.691406 16.394531h35.242188c.96875 0 1.753906.785156 1.753906 1.753906v63.183594h-7.777344c-8.996094 0-16.320312 7.308594-16.355468 16.300781l.320312 31.441407c-1.667969-.511719-3.441406-.777344-5.273438-.71875l-6.105468.195312-3.558594-70.480469v-39.921875c0-.96875.785156-1.753906 1.753906-1.753906zm-103.34375 152.019531-8.457031-73.847656c-.046875-.421875.117187-.726563.257813-.90625.144531-.179687.402343-.40625.8125-.453125l36.074218-4.125c.652344-.078125 1.28125.40625 1.359375 1.078125l8.808594 77.050781.160156 3.199219c-4.421875-1.304687-9.050781-1.996094-13.773437-1.996094zm54.941406 10.054688-1.429687-12.398438-5.621094-111.691406c-.035156-.679687.480469-1.261719 1.152344-1.292969l36.28125-1.824218c.394531-.019532.695313.15625.867187.3125.167969.152343.378907.425781.398438.839843l.304688 6.011719v70.703125l-8.234376.261719c-4.371093.140625-8.425781 1.972656-11.417968 5.160156-2.984375 3.1875-4.554688 7.347656-4.417969 11.71875l1.316406 41.292969c-2.664062-3.4375-5.765625-6.488281-9.199219-9.09375zm24.726563 34.984375-2.15625-67.648438c-.015625-.574218.238281-.972656.453125-1.199218.214844-.230469.585938-.507813 1.160156-.523438l32.59375-1.039062c.886719-.035157 1.691406.691406 1.722656 1.609374l1.4375 45.285157c.128907 4.058593 3.558594 7.273437 7.578126 7.109375 3.824218-.121094 6.867187-3.140625 7.097656-6.882813.011718-.109375.015625-.222656.015625-.355469l1.335937-92.007812c0-.035156 0-.070312 0-.105469 0-.921875.742188-1.667969 1.65625-1.667969h32.613282c.917968 0 1.667968.746094 1.667968 1.667969v165.203125c-12.097656-.875-23.964844-3.660156-35.199218-8.230468l-.742188-23.304688c-.128906-4.054688-3.535156-7.257812-7.578125-7.109375-4.058594.128906-7.242187 3.523437-7.113281 7.578125l.492187 15.484375c-1.757812-1.027344-3.5-2.085937-5.210937-3.207031-12.484375-8.175782-23.261719-18.59375-31.824219-30.65625zm152.503906 34.726562v-95.679687c0-.917969.75-1.664063 1.667969-1.664063h32.617188c.910156 0 1.65625.746094 1.65625 1.664063v64.476562c-9.84375 12.835938-22.113282 23.417969-35.941407 31.203125zm50.636719-55.585937v-40.09375c0-9.019531-7.335938-16.359375-16.355469-16.359375h-4.515625v-59.550782l.695313-13.828124c.035156-.671876.597656-1.199219 1.289062-1.164063l36.25 1.824219c.679688.035156 1.207031.613281 1.171875 1.285156l-4.707031 93.285156-2.445313 21.375c-4.527343 3.65625-8.410156 8.117188-11.382812 13.226563zm27.910156-22.003907.582032-11.546874 7.886718-68.878907c.046875-.421875.273438-.679687.457032-.824219.179687-.144531.480468-.308593.890624-.257812l36.074219 4.125c.671875.078125 1.15625.6875 1.082031 1.359375l-8.445312 73.847656h-24.085938c-4.964843 0-9.824218.761719-14.441406 2.175781zm0 0"/><path d="m142.890625 386.480469c0 29.710937 24.171875 53.886719 53.886719 53.886719 29.710937 0 53.886718-24.175782 53.886718-53.886719 0-29.714844-24.175781-53.886719-53.886718-53.886719-29.714844 0-53.886719 24.171875-53.886719 53.886719zm93.074219 0c0 21.609375-17.578125 39.191406-39.1875 39.191406-21.613282 0-39.191406-17.582031-39.191406-39.191406s17.578124-39.191407 39.191406-39.191407c21.609375 0 39.1875 17.582032 39.1875 39.191407zm0 0"/></svg>