<svg height="512pt" viewBox="-8 0 512 512.00211" width="512pt" xmlns="http://www.w3.org/2000/svg"><path d="m375.105469 120.824219c-17.988281 3.605469-35.066407 13.902343-48.976563 33.0625-22.804687 31.410156-34.871094 76.382812-47.472656 117.578125-33.492188 109.472656-139.304688 134.113281-230.851562 93.261718-21.121094-9.421874-55.785157-24.863281-26.683594 24.761719 62.957031 107.351563 210.769531 137.542969 313.667968 92.054688 92.042969-40.683594 142.785157-146.175781 151.496094-242.441407 4.101563-45.324218-6.792968-72.25-23.84375-89.582031-4.253906-.164062-8.507812-1.539062-12.214844-4.222656-7.734374-5.585937-17.140624-10.625-28.378906-14.289063l-.339844-.109374c-.417968-.121094-.835937-.25-1.253906-.398438-9.582031-2.96875-20.527344-4.949219-32.964844-5.46875-4.558593-.183594-8.742187-1.71875-12.183593-4.207031zm0 0" fill="#ff6977" fill-rule="evenodd"/><path d="m375.105469 120.824219c3.441406 2.488281 7.625 4.023437 12.183593 4.207031 12.433594.519531 23.382813 2.503906 32.964844 5.46875.414063.148438.832032.28125 1.253906.398438l.335938.109374c11.238281 3.667969 20.644531 8.707032 28.382812 14.292969 3.707032 2.679688 7.960938 4.058594 12.214844 4.21875 7.199219.273438 14.398438-2.945312 18.9375-9.21875 7.222656-9.984375 4.984375-23.933593-4.996094-31.15625-5.621093-4.054687-11.832031-7.90625-18.648437-11.398437 2.257813-6.078125 4.210937-12.554688 5.765625-19.429688 3.175781-14.058594 4.707031-29.769531 3.8125-47.15625-.652344-12.320312-11.171875-21.78125-23.496094-21.128906-12.320312.652344-21.78125 11.171875-21.128906 23.492188.675781 13.074218-.429688 24.6875-2.742188 34.921874-1.210937 5.347657-2.742187 10.324219-4.519531 14.941407-8.257812-1.574219-17.035156-2.613281-26.34375-3.003907-12.332031-.496093-22.726562 9.097657-23.222656 21.425782-.3125 7.773437 3.382813 14.777344 9.246094 19.015625zm0 0" fill="#78d0a9" fill-rule="evenodd"/><path d="m314.574219 435.8125c-20.363281 9-42.828125 14.34375-66.769531 15.878906-5.511719.355469-9.695313 5.105469-9.339844 10.617188.335937 5.296875 4.738281 9.363281 9.96875 9.363281.214844 0 .433594-.007813.648437-.023437 26.300781-1.6875 51.054688-7.589844 73.574219-17.542969 5.054688-2.234375 7.335938-8.136719 5.105469-13.191407-2.230469-5.050781-8.136719-7.335937-13.1875-5.101562zm0 0"/><path d="m479.796875 155.019531c3.753906-2.226562 7.050781-5.214843 9.683594-8.859375 5.0625-6.992187 7.09375-15.535156 5.726562-24.058594-1.367187-8.519531-5.972656-16-12.972656-21.0625-3.949219-2.851562-8.074219-5.535156-12.328125-8.023437 1.277344-4.101563 2.394531-8.28125 3.347656-12.496094 3.574219-15.8125 4.933594-32.589843 4.042969-49.886719-.941406-17.808593-16.195313-31.523437-34.007813-30.585937-8.625.457031-16.558593 4.246094-22.335937 10.667969s-8.707031 14.710937-8.25 23.324218c.585937 11.394532-.257813 22.230469-2.511719 32.203126-.449218 1.984374-.957031 3.953124-1.523437 5.890624-6.277344-.886718-12.699219-1.472656-19.1875-1.742187-8.636719-.339844-16.882813 2.6875-23.230469 8.546875s-10.035156 13.839844-10.382812 22.472656c-.195313 4.878906.6875 9.636719 2.554687 14-11.925781 4.78125-22.703125 12.3125-32.15625 22.539063-3.746094 4.058593-3.5 10.382812.558594 14.132812 1.921875 1.777344 4.355469 2.65625 6.785156 2.65625 2.691406 0 5.375-1.082031 7.34375-3.214843 9.351563-10.117188 20.257813-16.835938 32.449219-20.035157 4.128906 2.125 8.707031 3.34375 13.484375 3.535157 10.816406.453124 20.992187 2.128906 30.253906 4.980468.476563.164063.957031.316406 1.4375.457032l.164063.054687c9.40625 3.066406 18.03125 7.40625 25.621093 12.882813 4.011719 2.902343 8.535157 4.792968 13.269531 5.632812 15.777344 17.761719 21.898438 43.703125 18.691407 79.171875-7.386719 81.613281-49.945313 191.921875-145.582031 234.195313-95.648438 42.285156-239.421876 17.023437-300.996094-87.972657-5.90625-10.066406-8.257813-16.003906-9.183594-19.261719 1.527344.300782 3.648438.847657 6.519531 1.832032 5.449219 1.867187 11.394531 4.519531 16.644531 6.863281 53.972657 24.082031 111.417969 25.835937 157.605469 4.816406 41.789063-19.019531 71.832031-55.082031 86.882813-104.289062 1.285156-4.195313 2.566406-8.433594 3.851562-12.691407 4.289063-14.210937 8.722656-28.902343 13.617188-42.898437 1.824218-5.210937-.925782-10.917969-6.136719-12.738281-5.210937-1.824219-10.917969.921875-12.742187 6.136718-5.039063 14.40625-9.535157 29.308594-13.886719 43.722657-1.277344 4.230469-2.550781 8.445312-3.828125 12.621093-13.328125 43.566407-39.625 75.359376-76.042969 91.933594-40.972656 18.648438-92.429687 16.871094-141.171875-4.875-17.601562-7.855468-37.550781-16.757812-47.789062-5.320312-9.34375 10.441406-.996094 28.238281 8.40625 44.269531 30.789062 52.503906 83.324218 90.839844 147.921874 107.953125 24.003907 6.355469 48.761719 9.503906 73.21875 9.503906 36.960938 0 73.238282-7.183594 105.195313-21.3125 44.777344-19.792968 83.371094-55.929687 111.601563-104.5 24.886718-42.816406 41.15625-94.730468 45.816406-146.1875 3.238281-35.816406-2.15625-63.796875-16.449219-84.984375zm-54.859375-33.523437-.335938-.109375c-.121093-.039063-.242187-.078125-.367187-.109375-.226563-.066406-.453125-.136719-.675781-.214844-.117188-.039062-.230469-.078125-.34375-.113281-10.953125-3.394531-22.898438-5.382813-35.507813-5.90625-.003906 0-.011719-.003907-.015625-.003907-3.292968-.128906-6.339844-1.539062-8.574218-3.960937-2.234376-2.421875-3.394532-5.570313-3.261719-8.863281.132812-3.296875 1.539062-6.34375 3.960937-8.578125 2.296875-2.121094 5.25-3.269531 8.347656-3.269531.167969 0 .335938 0 .503907.007812 8.503906.355469 16.878906 1.3125 24.890625 2.839844 4.746094.898437 9.46875-1.722656 11.207031-6.234375 2.007813-5.222657 3.667969-10.71875 4.9375-16.328125 2.65625-11.753906 3.65625-24.417969 2.976563-37.65625-.175782-3.289063.945312-6.453125 3.148437-8.902344 2.203125-2.453125 5.230469-3.898438 8.523437-4.070312 6.792969-.347657 12.617188 4.875 12.976563 11.65625.796875 15.457031-.410156 30.40625-3.578125 44.4375-1.402344 6.199218-3.214844 12.304687-5.386719 18.148437-1.765625 4.753906.304688 10.074219 4.816407 12.382813 6.066406 3.109374 11.90625 6.679687 17.34375 10.601562 2.664062 1.929688 4.417968 4.777344 4.9375 8.027344.519531 3.246094-.253907 6.5-2.179688 9.164062-1.929688 2.664063-4.777344 4.417969-8.023438 4.9375-3.25.523438-6.503906-.253906-9.175781-2.1875-9.28125-6.699218-19.753906-11.980468-31.144531-15.695312zm0 0"/><path d="m210.835938 451.078125c-5.335938-1.421875-10.8125 1.75-12.234376 7.089844-1.425781 5.335937 1.753907 10.8125 7.089844 12.238281.859375.230469 1.726563.339844 2.582032.339844 4.417968 0 8.460937-2.953125 9.65625-7.425782 1.421874-5.335937-1.75-10.816406-7.085938-12.238281zm0 0"/><path d="m307.035156 187.351562c1.433594.71875 2.960938 1.058594 4.464844 1.058594 3.667969 0 7.199219-2.027344 8.949219-5.53125l.003906-.007812c2.472656-4.9375.46875-10.941406-4.472656-13.410156-4.941407-2.472657-10.949219-.464844-13.417969 4.476562-2.46875 4.9375-.46875 10.945312 4.472656 13.414062zm0 0"/></svg>