<svg enable-background="new 0 0 512 512" height="512" viewBox="0 0 512 512" width="512" xmlns="http://www.w3.org/2000/svg"><g id="_x39_1_Menu"><g><path d="m494.286 73.069c0 26.908-21.813 48.722-48.722 48.722h-379.11c-26.908 0-48.722-21.813-48.722-48.722 0-26.908 21.813-48.722 48.722-48.722h379.111c26.908.001 48.721 21.814 48.721 48.722z" fill="#ffc809"/><path d="m494.286 255.999c0 26.908-21.813 48.722-48.722 48.722h-379.11c-26.908 0-48.722-21.813-48.722-48.722 0-26.908 21.813-48.722 48.722-48.722h379.111c26.908 0 48.721 21.813 48.721 48.722z" fill="#fff"/><path d="m494.286 438.928c0 26.908-21.813 48.722-48.722 48.722h-379.11c-26.908 0-48.722-21.813-48.722-48.722 0-26.908 21.813-48.722 48.722-48.722h379.111c26.908.001 48.721 21.814 48.721 48.722z" fill="#ffc809"/><path d="m445.564 12.819h-379.109c-33.222 0-60.252 27.026-60.252 60.249s27.03 60.252 60.252 60.252h379.109c33.222 0 60.252-27.03 60.252-60.252s-27.03-60.249-60.252-60.249zm0 97.442h-379.109c-20.507 0-37.193-16.686-37.193-37.193s16.686-37.19 37.193-37.19h379.109c20.507 0 37.193 16.683 37.193 37.19s-16.686 37.193-37.193 37.193z"/><path d="m445.537 293.203h-179.094c-6.369 0-11.53 5.161-11.53 11.53s5.161 11.53 11.53 11.53h179.094c33.226 0 60.26-27.034 60.26-60.26 0-33.23-27.034-60.264-60.26-60.264h-379.093c-32.531 0-60.26 26.289-60.26 60.264 0 33.226 27.034 60.26 60.26 60.26h144.427c6.369 0 11.53-5.161 11.53-11.53s-5.161-11.53-11.53-11.53h-144.427c-20.514 0-37.201-16.69-37.201-37.201 0-21.144 17.335-37.205 37.201-37.205h379.094c20.514 0 37.201 16.69 37.201 37.205-.001 20.511-16.687 37.201-37.202 37.201z"/><path d="m445.564 378.676h-379.109c-33.222 0-60.252 27.03-60.252 60.252s27.03 60.252 60.252 60.252h379.109c33.222 0 60.252-27.03 60.252-60.252s-27.03-60.252-60.252-60.252zm0 97.446h-379.109c-20.507 0-37.193-16.686-37.193-37.193s16.686-37.193 37.193-37.193h379.109c20.507 0 37.193 16.686 37.193 37.193s-16.686 37.193-37.193 37.193z"/></g></g></svg>